<?xml version="1.0" encoding="utf-8"?>
<!-- Generator: Adobe Illustrator 26.3.1, SVG Export Plug-In . SVG Version: 6.00 Build 0)  -->
<svg version="1.1" id="Layer_1" xmlns="http://www.w3.org/2000/svg" xmlns:xlink="http://www.w3.org/1999/xlink" x="0px" y="0px"
	 viewBox="0 0 174 36" style="enable-background:new 0 0 174 36;" xml:space="preserve">
<style type="text/css">
	.st0{clip-path:url(#SVGID_00000122711287203165228800000018244364840207284388_);}
	.st1{fill:#535353;}
	.st2{fill:#C54B30;}
</style>
<g>
	<defs>
		<rect id="SVGID_1_" width="173.5" height="36"/>
	</defs>
	<clipPath id="SVGID_00000018224406277658301410000015712709270938566831_">
		<use xlink:href="#SVGID_1_"  style="overflow:visible;"/>
	</clipPath>
	<g style="clip-path:url(#SVGID_00000018224406277658301410000015712709270938566831_);">
		<path class="st1" d="M60.2,25.7H44.6c0.7,2.2,2.5,3.5,5.3,3.5c2.1,0,3.5-0.6,4.9-1.9l3.9,4.2c-2,2.3-5,3.5-9.1,3.5
			c-7.6,0-12.6-4.8-12.6-11.2c0-6.6,5-11.2,11.8-11.2c6.3,0,11.4,4.1,11.4,11.2C60.3,24.4,60.2,25.1,60.2,25.7L60.2,25.7z
			 M44.5,21.7h8.8c-0.4-2.3-2-3.7-4.4-3.7C46.6,17.9,45,19.4,44.5,21.7z"/>
		<path class="st1" d="M83.6,14.7c1.2,1.4,1.8,3.5,1.8,6.1V35h-7.8V21.8c0-1-0.2-1.7-0.7-2.2c-0.5-0.5-1.1-0.8-2-0.8
			c-1,0-1.7,0.3-2.4,1c-0.6,0.7-0.9,1.5-0.9,2.4v12.9h-7.8V13h6.5l0.5,3.3c0.8-1.2,1.9-2.1,3.2-2.8c1.3-0.7,2.8-1,4.2-1
			C80.6,12.5,82.4,13.3,83.6,14.7"/>
		<path class="st1" d="M104,13v5.3h-4.4v8.6c0,1,0.2,1.6,0.5,2.1c0.3,0.4,0.9,0.7,1.7,0.7h2.2v4.6c-0.7,0.2-1.4,0.4-2.5,0.5
			c-1,0.1-1.9,0.2-2.6,0.2c-2.3,0-4.1-0.4-5.3-1.3c-1.3-0.8-1.9-2.2-1.9-4.3v-11h-2.9V13h3.2l1.7-5.6h5.9V13L104,13L104,13L104,13z"
			/>
		<path class="st1" d="M127.1,15.4c2.1,1.9,3.1,4.7,3.1,8.4c0,3.6-1,6.4-3.1,8.4c-2.1,1.9-4.9,2.9-8.6,2.9c-3.6,0-6.5-1-8.5-2.9
			c-2-1.9-3.1-4.7-3.1-8.4c0-3.7,1-6.5,3.1-8.4c2-1.9,4.9-2.9,8.5-2.9C122.2,12.5,125,13.5,127.1,15.4z M114.8,22.6v2.3
			c0,3,1.3,4.6,3.8,4.6s3.9-1.5,3.9-4.6v-2.3c0-3-1.3-4.6-3.9-4.6C116,18.1,114.8,19.6,114.8,22.6z"/>
		<path class="st1" d="M148.3,12.8C148.8,13,149,13,149,13v6.9h-2.5c-1.6,0-2.8,0.4-3.5,1.3c-0.7,0.9-1.1,2.2-1.1,3.9V35h-7.8V13.1
			h6.5l0.5,3.3c0.5-1.3,1.2-2.2,2.3-2.9c1-0.7,2.2-1,3.5-1C147.3,12.5,147.8,12.6,148.3,12.8"/>
		<path class="st1" d="M173.3,25.7h-15.6c0.7,2.2,2.5,3.5,5.3,3.5c2.1,0,3.5-0.6,4.9-1.9l3.9,4.2c-2,2.3-5,3.5-9.1,3.5
			c-7.6,0-12.6-4.8-12.6-11.2c0-6.6,5-11.2,11.8-11.2c6.3,0,11.4,4.1,11.4,11.2C173.5,24.4,173.4,25.1,173.3,25.7L173.3,25.7z
			 M157.7,21.7h8.8c-0.4-2.3-2-3.7-4.4-3.7C159.7,17.9,158.1,19.4,157.7,21.7"/>
		<path class="st1" d="M33.3,8.4H21.7l-5,8.4l-5.1-8.4H0V36h7.8V18l5.7,10.1h6l5.9-10.5v12.1h7.9V8.4z"/>
		<path class="st1" d="M25.5,32.5h7.9l0,3.4h-7.9L25.5,32.5z"/>
		<path class="st2" d="M16.7,10.3L22.5,0H10.8L16.7,10.3z"/>
	</g>
</g>
</svg>
