<svg width="124" height="50" viewBox="0 0 124 50" fill="none" xmlns="http://www.w3.org/2000/svg">
<path d="M0 6C0 2.68629 2.68629 0 6 0H118C121.314 0 124 2.68629 124 6V44C124 47.3137 121.314 50 118 50H6C2.68629 50 0 47.3137 0 44V6Z" fill="#D9D9D9"/>
<path d="M32.632 34H44.704V29.992H37.288V18.016H32.632V34Z" fill="white"/>
<path d="M53.875 17.632C49.147 17.632 45.931 20.464 45.931 24.976V27.04C45.931 31.552 49.147 34.384 53.875 34.384C58.603 34.384 61.819 31.552 61.819 27.04V24.976C61.819 20.464 58.603 17.632 53.875 17.632ZM53.875 21.424C55.795 21.424 57.067 22.6 57.067 25.096V26.896C57.067 29.416 55.795 30.568 53.875 30.568C51.979 30.568 50.659 29.416 50.659 26.896V25.096C50.659 22.6 51.979 21.424 53.875 21.424Z" fill="white"/>
<path d="M77.251 34H79.195V25.264H71.755V28.216H74.827C74.707 29.68 73.531 30.664 71.803 30.664C69.595 30.664 68.659 29.248 68.659 26.968V25.072C68.659 22.96 69.739 21.448 71.875 21.448C73.603 21.448 74.347 22.36 74.347 23.44V23.656H78.955V23.344C78.955 19.768 76.267 17.656 71.875 17.656C66.955 17.656 63.931 20.608 63.931 24.976V27.088C63.931 31.576 66.547 34.336 71.035 34.336C73.939 34.336 75.619 33.04 76.555 31.624L77.251 34Z" fill="white"/>
<path d="M89.4531 17.632C84.7251 17.632 81.5091 20.464 81.5091 24.976V27.04C81.5091 31.552 84.7251 34.384 89.4531 34.384C94.1811 34.384 97.3971 31.552 97.3971 27.04V24.976C97.3971 20.464 94.1811 17.632 89.4531 17.632ZM89.4531 21.424C91.3731 21.424 92.6451 22.6 92.6451 25.096V26.896C92.6451 29.416 91.3731 30.568 89.4531 30.568C87.5571 30.568 86.2371 29.416 86.2371 26.896V25.096C86.2371 22.6 87.5571 21.424 89.4531 21.424Z" fill="white"/>
</svg>
