<?xml version="1.0" encoding="UTF-8"?>
<svg id="Layer_2" data-name="Layer 2" xmlns="http://www.w3.org/2000/svg" width="103.88184" height="50" viewBox="0 0 103.88184 50">
  <g id="Layer_1-2" data-name="Layer 1">
    <g>
      <g>
        <polygon points="17.32874 13.78076 17.23499 13.78076 16.00452 17.37842 18.50061 17.37842 17.32874 13.78076" style="fill: #009aaf;"/>
        <path d="M100.88184,0H3C1.34998,0,0,1.34998,0,3V47c0,1.65002,1.34998,3,3,3H100.88184c1.65002,0,3-1.34998,3-3V3c0-1.65002-1.34998-3-3-3Zm-23.50085,20.88232c.6875,0,1.17969-.0918,1.47656-.27539s.44531-.5293,.44531-1.03711v-5.92969c0-.51562-.14844-.86523-.44531-1.04883s-.78906-.27539-1.47656-.27539V7.96826h16.69922v6.38672h-4.10156c0-.41406-.02344-.75391-.07031-1.01953s-.13477-.47266-.26367-.62109-.30078-.25195-.51562-.31055-.48242-.08789-.80273-.08789h-2.10938v3.11719h3.73828v2.07422h-3.73828v3.375h2.10938c.32031,0,.58789-.02734,.80273-.08203s.38672-.1582,.51562-.31055,.2168-.36133,.26367-.62695,.07031-.60547,.07031-1.01953h4.10156v6.38672h-16.69922v-4.34766Zm-29.37256,0c.6875,0,1.17969-.0918,1.47656-.27539s.44531-.5293,.44531-1.03711v-5.92969c0-.51562-.14844-.86523-.44531-1.04883s-.78906-.27539-1.47656-.27539V7.96826h11.15674l2.69531,8.09766,2.34375-8.09766h11.01562v4.34766c-.6875,0-1.17773,.0918-1.4707,.27539s-.43945,.5332-.43945,1.04883v5.92969c0,.50781,.14648,.85352,.43945,1.03711s.7832,.27539,1.4707,.27539v4.34766h-10.38281v-4.34766c.6875,0,1.13867-.0918,1.35352-.27539s.32227-.5293,.32227-1.03711v-6.72656l-4.00781,12.38672h-4.51172l-4.07812-11.73047v6.21094c0,.25781,.02344,.46289,.07031,.61523s.13086,.27148,.25195,.35742,.29297,.14062,.51562,.16406,.50195,.03516,.83789,.03516v4.34766h-7.58252v-4.34766ZM29.93225,12.4624c.49609-1.15234,1.15234-2.0957,1.96875-2.83008s1.74805-1.27344,2.79492-1.61719,2.13281-.51562,3.25781-.51562c.52344,0,1.01367,.04297,1.4707,.12891s.87305,.19727,1.24805,.33398,.69922,.28125,.97266,.43359,.49609,.29102,.66797,.41602v-.84375h3.86719v6.38672h-4.10156c0-.52344-.06445-.96094-.19336-1.3125s-.30078-.63672-.51562-.85547-.4668-.375-.75586-.46875-.60156-.14062-.9375-.14062c-.46094,0-.85547,.08789-1.18359,.26367s-.5957,.45898-.80273,.84961-.36328,.91016-.46875,1.55859-.1582,1.4375-.1582,2.36719c0,.94531,.05664,1.73633,.16992,2.37305s.28516,1.15234,.51562,1.54688,.52539,.67969,.88477,.85547,.78906,.26367,1.28906,.26367c.33594,0,.66016-.06445,.97266-.19336s.58789-.32617,.82617-.5918,.42578-.59766,.5625-.99609,.20508-.87891,.20508-1.44141h4.07812c0,.99219-.15625,1.92969-.46875,2.8125s-.80078,1.65625-1.46484,2.32031-1.50781,1.19141-2.53125,1.58203-2.23828,.58594-3.64453,.58594c-1.26562,0-2.46289-.17188-3.5918-.51562s-2.11328-.88281-2.95312-1.61719-1.50391-1.67773-1.99219-2.83008-.73242-2.53711-.73242-4.1543,.24805-3.00195,.74414-4.1543ZM9.52405,20.88232h.48047c.5625,0,.93945-.11133,1.13086-.33398s.37695-.54883,.55664-.97852l2.40234-5.92969c.17188-.45312,.20117-.78711,.08789-1.00195s-.45508-.32227-1.02539-.32227h-.24609V7.96826h12.04688v4.34766h-.23438c-.57812,0-.92383,.11328-1.03711,.33984s-.08008,.55469,.09961,.98438l2.40234,5.92969c.09375,.21875,.17773,.4082,.25195,.56836s.16602,.29688,.27539,.41016,.25586,.19727,.43945,.25195,.41992,.08203,.70898,.08203h.48047v4.34766h-10.65234v-4.34766h.64453c.44531,0,.74414-.11133,.89648-.33398s.16602-.50195,.04102-.83789l-.16406-.50391h-3.70312l-.16406,.50391c-.125,.33594-.11719,.61523,.02344,.83789s.4375,.33398,.89062,.33398h.66797v4.34766h-7.30078v-4.34766Zm91.35779,26.11768H3v-14.50745H100.88184v14.50745Z" style="fill: #009aaf;"/>
      </g>
      <g>
        <path d="M10.68067,36.5515v5.48782h-1.43006v-5.48782h1.43006Z" style="fill: #009aaf;"/>
        <path d="M18.79569,36.5515v5.48782h-1.58839l-1.70461-2.96872-.41562-.81399h-.00812l.03299,1.01393v2.76878h-1.26361v-5.48782h1.58789l1.70461,2.96872,.41562,.815h.00863l-.03349-1.01495v-2.76878h1.26412Z" style="fill: #009aaf;"/>
        <path d="M26.82748,40.46818c-.10555,.38264-.27454,.69727-.50747,.9439s-.51001,.42628-.83124,.53995c-.32174,.11367-.67646,.17051-1.06417,.17051-.55467,0-1.03423-.11266-1.43869-.33696s-.71503-.54706-.93121-.96826-.32428-.92868-.32428-1.52141c0-.59374,.10809-1.1002,.32428-1.52141s.52676-.74497,.93121-.96928,.88148-.33696,1.43006-.33696c.38264,0,.73431,.05481,1.05605,.16239,.32123,.1086,.59324,.27302,.815,.49529,.22126,.22126,.37959,.50646,.47398,.8556l-1.25549,.50747c-.07764-.34407-.204-.57954-.37858-.7064-.17457-.12788-.39481-.19183-.66073-.19183-.26084,0-.48667,.06394-.67799,.19183-.19132,.12687-.33798,.31666-.44049,.56939-.10251,.25171-.15376,.56634-.15376,.9439,0,.37147,.0472,.68407,.14108,.93883,.09439,.25577,.23699,.44658,.42831,.57446,.19132,.12687,.42831,.19081,.71097,.19081,.26592,0,.49174-.07308,.67748-.22024s.3121-.37249,.37858-.67799l1.2971,.3664Z" style="fill: #009aaf;"/>
        <path d="M32.04076,36.46827c.55416,0,1.0322,.11266,1.43412,.33696s.71097,.54807,.92716,.96928,.32428,.92766,.32428,1.52141c0,.59273-.10809,1.1002-.32428,1.52141s-.52524,.74396-.92716,.96826-.87996,.33696-1.43412,.33696c-.55467,0-1.03423-.11266-1.43869-.33696s-.71503-.54706-.93121-.96826-.32428-.92868-.32428-1.52141c0-.59374,.10809-1.1002,.32428-1.52141s.52676-.74497,.93121-.96928,.88402-.33696,1.43869-.33696Zm0,1.12253c-.26642,0-.49073,.06394-.67342,.19183-.1832,.12687-.32174,.31666-.41613,.56939-.09388,.25171-.14108,.56634-.14108,.9439,0,.37147,.0472,.68407,.14108,.93883,.09439,.25577,.23293,.44658,.41613,.57446,.18269,.12687,.40699,.19081,.67342,.19081,.26592,0,.4892-.06394,.66936-.19081,.17965-.12788,.31717-.31869,.41156-.57446,.09388-.25475,.14108-.56736,.14108-.93883,0-.37756-.0472-.69219-.14108-.9439-.09439-.25272-.23192-.44252-.41156-.56939-.18015-.12788-.40344-.19183-.66936-.19183Z" style="fill: #009aaf;"/>
        <path d="M40.28011,36.5515c.65413,0,1.16262,.15427,1.52547,.4618,.36335,.30753,.54503,.71655,.54503,1.22606,0,.56025-.18015,.98653-.54046,1.28086-.36031,.29332-.86778,.44049-1.52191,.44049l-.13296,.07511h-1.08904v2.00351h-1.4052v-5.48782h2.61907Zm-.19944,2.46937c.27708,0,.48464-.05481,.62369-.16645,.13803-.11063,.20756-.28723,.20756-.53183,0-.23851-.06952-.41308-.20756-.52371-.13905-.11063-.3466-.16645-.62369-.16645h-1.01444v1.38845h1.01444Zm.83987,.29941l1.75434,2.71905h-1.57977l-1.4052-2.40238,1.23062-.31666Z" style="fill: #009aaf;"/>
        <path d="M47.86279,36.5515c.44911,0,.83175,.07206,1.1474,.21618,.31616,.14412,.55721,.35219,.72366,.62419,.16594,.27099,.24917,.60085,.24917,.98957,0,.38771-.08323,.71757-.24917,.98856-.16645,.27201-.4075,.48007-.72366,.62419-.31565,.14412-.69828,.21618-1.1474,.21618h-1.08904v1.82894h-1.43006v-5.48782h2.5191Zm-.2243,2.58609c.29941,0,.52524-.06191,.67748-.18675,.15275-.12484,.22887-.31463,.22887-.56939,0-.25577-.07612-.44556-.22887-.5704-.15224-.12484-.37807-.18675-.67748-.18675h-.86474v1.51329h.86474Z" style="fill: #009aaf;"/>
        <path d="M55.31251,36.46827c.55416,0,1.0322,.11266,1.43412,.33696s.71046,.54807,.92665,.96928,.32478,.92766,.32478,1.52141c0,.59273-.1086,1.1002-.32478,1.52141s-.52473,.74396-.92665,.96826-.87996,.33696-1.43412,.33696-1.03423-.11266-1.43869-.33696-.71503-.54706-.93121-.96826-.32428-.92868-.32428-1.52141c0-.59374,.10809-1.1002,.32428-1.52141s.52676-.74497,.93121-.96928,.88453-.33696,1.43869-.33696Zm0,1.12253c-.26592,0-.49022,.06394-.67291,.19183-.18371,.12687-.32174,.31666-.41664,.56939-.09388,.25171-.14108,.56634-.14108,.9439,0,.37147,.0472,.68407,.14108,.93883,.0949,.25577,.23293,.44658,.41664,.57446,.18269,.12687,.40699,.19081,.67291,.19081s.4892-.06394,.66987-.19081c.17965-.12788,.31666-.31869,.41105-.57446,.09439-.25475,.14108-.56736,.14108-.93883,0-.37756-.04669-.69219-.14108-.9439-.09439-.25272-.23141-.44252-.41105-.56939-.18066-.12788-.40395-.19183-.66987-.19183Z" style="fill: #009aaf;"/>
        <path d="M63.55185,36.5515c.65464,0,1.16313,.15427,1.52648,.4618,.36234,.30753,.54401,.71655,.54401,1.22606,0,.56025-.17965,.98653-.53995,1.28086-.36031,.29332-.86778,.44049-1.52141,.44049l-.13296,.07511h-1.09005v2.00351h-1.40469v-5.48782h2.61857Zm-.19893,2.46937c.27708,0,.48515-.05481,.62318-.16645,.13905-.11063,.20806-.28723,.20806-.53183,0-.23851-.06902-.41308-.20806-.52371-.13803-.11063-.3461-.16645-.62318-.16645h-1.01495v1.38845h1.01495Zm.83936,.29941l1.75485,2.71905h-1.58027l-1.40469-2.40238,1.23012-.31666Z" style="fill: #009aaf;"/>
        <path d="M68.04198,42.03932l1.9284-5.48782h1.71323l1.92028,5.48782h-1.47167l-1.0728-3.52491-.24054-.86474h-.01624l-.22532,.8556-1.09716,3.53405h-1.43818Zm1.25549-1.23925v-.97232h3.05093v.97232h-3.05093Z" style="fill: #009aaf;"/>
        <path d="M80.12291,36.5515v1.10629h-1.78834v4.38153h-1.43006v-4.38153h-1.79544v-1.10629h5.01384Z" style="fill: #009aaf;"/>
        <path d="M82.89169,42.03932v-5.48782h4.27395v1.10629h-2.84388v1.11441h2.2613v1.03931h-2.2613v1.12152h2.95147v1.10629h-4.38153Z" style="fill: #009aaf;"/>
        <path d="M92.42002,36.5515c.85865,0,1.51735,.23851,1.97407,.71554,.45774,.47703,.6861,1.15298,.6861,2.02888s-.22836,1.55186-.6861,2.02787c-.45673,.47703-1.11543,.71554-1.97407,.71554h-2.32829v-5.48782h2.32829Zm-.14108,4.4069c.46485,0,.80485-.14006,1.01799-.42019,.21314-.27911,.31971-.69422,.31971-1.2423,0-.54909-.10657-.96319-.31971-1.24331s-.55315-.42019-1.01799-.42019h-.75715v3.32598h.75715Z" style="fill: #009aaf;"/>
      </g>
    </g>
  </g>
</svg>